<svg width="19" height="20" viewBox="0 0 19 20" fill="none" xmlns="http://www.w3.org/2000/svg">
<path fill-rule="evenodd" clip-rule="evenodd" d="M1.52212 5.89949C1.03495 6.27841 0.75 6.86102 0.75 7.4782V17.5C0.75 18.0305 0.960714 18.5392 1.33579 18.9142C1.71086 19.2893 2.21957 19.5 2.75 19.5H6.75V12.5C6.75 11.9477 7.19772 11.5 7.75 11.5H11.75C12.3023 11.5 12.75 11.9477 12.75 12.5V19.5H16.75C17.2804 19.5 17.7891 19.2893 18.1642 18.9142C18.5393 18.5392 18.75 18.0305 18.75 17.5V7.4782C18.75 6.86102 18.4651 6.27841 17.9779 5.89949L10.9779 0.455049C10.2557 -0.106679 9.24434 -0.10668 8.52212 0.455047L1.52212 5.89949Z" fill="#999999"/>
</svg>
